<svg width="20" height="20" viewBox="0 0 20 20" xmlns="http://www.w3.org/2000/svg">
    <path d="M16.194 10.817c.033-.267.058-.534.058-.817 0-.283-.025-.55-.058-.817l1.758-1.375a.42.42 0 0 0 .1-.533l-1.667-2.883a.416.416 0 0 0-.508-.184l-2.075.834a6.088 6.088 0 0 0-1.408-.817l-.317-2.208a.406.406 0 0 0-.408-.35H8.335a.406.406 0 0 0-.408.35L7.61 4.225a6.402 6.402 0 0 0-1.408.817l-2.075-.834a.472.472 0 0 0-.15-.025.413.413 0 0 0-.358.209L1.952 7.275a.41.41 0 0 0 .1.533L3.81 9.183a6.609 6.609 0 0 0-.058.817c0 .275.025.55.058.817l-1.758 1.375a.42.42 0 0 0-.1.533l1.667 2.883a.416.416 0 0 0 .508.184l2.075-.834c.433.334.9.609 1.408.817l.317 2.208c.025.2.2.35.408.35h3.334c.208 0 .383-.15.408-.35l.317-2.208a6.402 6.402 0 0 0 1.408-.817l2.075.834c.05.016.1.025.15.025a.413.413 0 0 0 .358-.209l1.667-2.883a.42.42 0 0 0-.1-.533l-1.758-1.375zm-1.65-1.425c.033.258.041.433.041.608s-.016.358-.041.608l-.117.942.742.583.9.7-.584 1.009-1.058-.425-.867-.35-.75.566a4.88 4.88 0 0 1-1.041.609l-.884.358-.133.942-.167 1.125H9.42l-.159-1.125-.133-.942-.883-.358a4.728 4.728 0 0 1-1.025-.592l-.759-.583-.883.358-1.058.425-.584-1.008.9-.7.742-.584-.117-.941A6.703 6.703 0 0 1 5.42 10c0-.167.016-.358.041-.608l.117-.942-.742-.583-.9-.7.584-1.009 1.058.425.867.35.75-.566a4.88 4.88 0 0 1 1.041-.609L9.12 5.4l.133-.942.167-1.125h1.158l.158 1.125.134.942.883.358c.358.15.692.342 1.025.592l.758.583.884-.358 1.058-.425.583 1.008-.891.709-.742.583.117.942zm-4.542-2.725a3.332 3.332 0 1 0 0 6.666 3.332 3.332 0 1 0 0-6.666zm0 5c-.917 0-1.667-.75-1.667-1.667s.75-1.667 1.667-1.667 1.667.75 1.667 1.667-.75 1.667-1.667 1.667z" fill="#2C3032" fill-rule="evenodd"/>
</svg>
