<svg width="72" height="28" viewBox="0 0 72 28" xmlns="http://www.w3.org/2000/svg">
    <g fill="#FFF" fill-rule="evenodd">
        <path d="M57.454 28C65.156 28 71.4 21.732 71.4 14S65.156 0 57.454 0 43.508 6.268 43.508 14s6.244 14 13.946 14z" opacity=".2"/>
        <path d="M4.964 18.652c1.948 0 3.074-.854 3.91-2.015L7.025 15.31c-.531.65-1.075 1.085-1.999 1.085-1.24 0-2.112-1.046-2.112-2.386v-.025c0-1.301.873-2.373 2.112-2.373.848 0 1.43.421 1.936 1.046l1.847-1.441c-.784-1.084-1.948-1.85-3.757-1.85-2.682 0-4.656 2.041-4.656 4.643v.026c0 2.666 2.037 4.617 4.567 4.617zm8.12-.178h2.568l.632-1.607h3.429l.632 1.607h2.632l-3.77-8.993H16.84l-3.758 8.993zm3.921-3.534 1-2.525.987 2.525h-1.987zm10.751 3.534h2.454V15.77h1.088l1.784 2.704h2.822L33.79 15.36c1.1-.472 1.822-1.377 1.822-2.755v-.025c0-.88-.266-1.556-.785-2.08-.594-.599-1.53-.956-2.884-.956h-4.188v8.929zm2.454-4.643v-2.156h1.62c.81 0 1.328.357 1.328 1.072v.025c0 .65-.493 1.059-1.316 1.059H30.21zm12.725 4.643h2.454v-6.76h2.657v-2.17H40.29v2.17h2.644v6.76zm14.519.193c2.567 0 4.649-2.09 4.649-4.667s-2.082-4.667-4.65-4.667c-2.567 0-4.648 2.09-4.648 4.667s2.081 4.667 4.649 4.667z"/>
    </g>
</svg>
