<svg width="24" height="24" viewBox="0 0 24 24" fill="none" xmlns="http://www.w3.org/2000/svg">
<path fill-rule="evenodd" clip-rule="evenodd" d="M0 0H24V24H0V0Z" fill="#EBEBED"/>
<path fill-rule="evenodd" clip-rule="evenodd" d="M12.334 8.334H11V11H8.334V12.334H11V15H12.334V12.334H15V11H12.334V8.334ZM11.667 5C9.89905 5.0008 8.20373 5.70346 6.9536 6.9536C5.70346 8.20373 5.0008 9.89905 5 11.667C5.0008 13.435 5.70346 15.1303 6.9536 16.3804C8.20373 17.6305 9.89905 18.3332 11.667 18.334C13.435 18.3332 15.1303 17.6305 16.3804 16.3804C17.6305 15.1303 18.3332 13.435 18.334 11.667C18.3332 9.89905 17.6305 8.20373 16.3804 6.9536C15.1303 5.70346 13.435 5.0008 11.667 5V5ZM11.667 17C10.2532 16.9981 8.89778 16.4357 7.89805 15.436C6.89832 14.4362 6.33585 13.0808 6.334 11.667C6.33585 10.2532 6.89832 8.89778 7.89805 7.89805C8.89778 6.89832 10.2532 6.33585 11.667 6.334C13.0808 6.33585 14.4362 6.89832 15.436 7.89805C16.4357 8.89778 16.9981 10.2532 17 11.667C16.9981 13.0808 16.4357 14.4362 15.436 15.436C14.4362 16.4357 13.0808 16.9981 11.667 17Z" fill="#2C3032" fill-opacity="0.6"/>
</svg>
