<svg width="62" height="24" viewBox="0 0 62 24" xmlns="http://www.w3.org/2000/svg">
    <g fill="#162945" fill-rule="evenodd">
        <path d="M49.481 24c6.596 0 11.943-5.373 11.943-12S56.077 0 49.481 0C42.886 0 37.54 5.373 37.54 12s5.347 12 11.942 12z" fill-opacity=".2"/>
        <path d="M4.532 15.988c1.669 0 2.633-.733 3.348-1.728l-1.582-1.137c-.455.558-.92.93-1.712.93-1.061 0-1.809-.897-1.809-2.045v-.022c0-1.115.748-2.033 1.81-2.033.725 0 1.224.36 1.657.896l1.582-1.235c-.672-.93-1.669-1.586-3.218-1.586-2.297 0-3.987 1.75-3.987 3.98v.022c0 2.285 1.744 3.958 3.911 3.958zm6.953-.153h2.2l.541-1.378h2.936l.542 1.378h2.253L16.73 8.127h-2.026l-3.218 7.708zm3.359-3.029.855-2.165.845 2.165h-1.7zm9.206 3.029h2.102v-2.318h.931l1.528 2.318h2.416l-1.81-2.668c.943-.405 1.56-1.18 1.56-2.362v-.022c0-.754-.227-1.333-.67-1.782-.51-.514-1.312-.82-2.471-.82H24.05v7.654zm2.102-3.98v-1.848h1.386c.694 0 1.138.306 1.138.919v.021c0 .558-.423.908-1.127.908h-1.397zm10.896 3.98h2.102V10.04h2.275V8.181h-6.641v1.859h2.264v5.795zM49.481 16c2.199 0 3.981-1.79 3.981-4s-1.782-4-3.98-4c-2.2 0-3.981 1.79-3.981 4s1.782 4 3.98 4z"/>
    </g>
</svg>
