<svg width="24" height="24" viewBox="0 0 24 24" fill="none" xmlns="http://www.w3.org/2000/svg">
<path fill-rule="evenodd" clip-rule="evenodd" d="M0 0H24V24H0V0Z" fill="#036FE2"/>
<path opacity="0.2" fill-rule="evenodd" clip-rule="evenodd" d="M11.957 21C16.903 21 20.913 16.97 20.913 12C20.913 7.03 16.903 3 11.957 3C7.01 3 3 7.03 3 12C3 16.97 7.01 21 11.957 21Z" fill="white"/>
<path d="M11.9567 15C13.6058 15 14.9427 13.6569 14.9427 12C14.9427 10.3431 13.6058 9 11.9567 9C10.3076 9 8.9707 10.3431 8.9707 12C8.9707 13.6569 10.3076 15 11.9567 15Z" fill="white"/>
</svg>
