<svg width="88" height="28" viewBox="0 0 88 28" xmlns="http://www.w3.org/2000/svg">
    <g fill="none" fill-rule="evenodd">
        <path d="M0 0h88v28H0z"/>
        <path d="M4.869 18.667 8.073 9.38l3.19 9.287h1.213l3.67-10.89h-1.104l-3.189 9.412L8.65 7.778H7.576l-3.252 9.364-3.142-9.364H0l3.671 10.889H4.87zm15.983.077c.788 0 1.499-.178 2.131-.536a3.858 3.858 0 0 0 1.486-1.486c.358-.632.537-1.348.537-2.146 0-.799-.18-1.515-.537-2.147a3.804 3.804 0 0 0-1.486-1.478c-.632-.352-1.343-.529-2.13-.529-.789 0-1.5.177-2.132.53a3.858 3.858 0 0 0-1.493 1.477c-.363.632-.545 1.348-.545 2.147 0 .798.182 1.514.545 2.146.363.633.86 1.128 1.493 1.486.633.358 1.343.536 2.131.536zm0-.98c-.58 0-1.102-.132-1.563-.396A2.817 2.817 0 0 1 18.2 16.24c-.264-.487-.397-1.042-.397-1.664 0-.623.133-1.177.397-1.665a2.817 2.817 0 0 1 1.089-1.128 3.088 3.088 0 0 1 1.563-.396c.581 0 1.102.132 1.564.396.461.265.821.64 1.08 1.128.26.488.39 1.042.39 1.665 0 .622-.13 1.177-.39 1.664-.259.487-.619.863-1.08 1.128a3.088 3.088 0 0 1-1.564.396zm7.63.903v-4.17c0-.953.244-1.695.731-2.224.488-.529 1.162-.793 2.023-.793l.264.016v-1.074c-.757 0-1.392.14-1.906.42-.513.28-.9.695-1.158 1.245v-1.603h-1.058v8.183h1.104zm6.23 0v-2.334l1.93-1.773 3.297 4.107h1.353l-3.826-4.838 3.5-3.345h-1.37l-4.884 4.465V7.124h-1.104v11.543h1.104zm10.306.077c1.058 0 1.885-.21 2.48-.63.597-.42.895-.987.895-1.703 0-.529-.14-.944-.42-1.244-.28-.301-.617-.514-1.01-.638a14.315 14.315 0 0 0-1.572-.373 12.174 12.174 0 0 1-1.244-.273 1.866 1.866 0 0 1-.755-.412c-.202-.187-.303-.435-.303-.747 0-.404.179-.73.537-.98.357-.248.889-.373 1.594-.373.933 0 1.737.233 2.411.7l.482-.887c-.342-.228-.777-.412-1.306-.552a6.178 6.178 0 0 0-1.587-.21c-1.016 0-1.81.218-2.38.654-.57.435-.856.995-.856 1.68 0 .55.143.98.428 1.29.285.312.63.532 1.035.662.404.13.938.256 1.602.38.498.084.897.17 1.198.258.3.088.55.217.746.388.197.172.296.407.296.708 0 .425-.179.755-.537.988-.358.233-.91.35-1.656.35-.56 0-1.1-.086-1.618-.257-.519-.17-.95-.391-1.291-.66l-.498.87c.342.29.817.532 1.423.724a6.282 6.282 0 0 0 1.906.287zm6.634 2.94v-4.557c.342.529.78.93 1.315 1.205a3.869 3.869 0 0 0 1.796.412c.778 0 1.476-.173 2.093-.52a3.741 3.741 0 0 0 1.454-1.47c.353-.633.529-1.36.529-2.178 0-.81-.176-1.53-.529-2.163a3.726 3.726 0 0 0-1.462-1.47 4.202 4.202 0 0 0-2.085-.52c-.684 0-1.299.144-1.843.435-.544.29-.983.705-1.314 1.244v-1.618h-1.058v11.2h1.104zm3.034-3.92c-.581 0-1.102-.132-1.564-.396a2.817 2.817 0 0 1-1.089-1.128c-.264-.487-.396-1.042-.396-1.664 0-.623.132-1.175.396-1.657a2.885 2.885 0 0 1 1.09-1.128c.46-.27.982-.404 1.563-.404.57 0 1.088.134 1.555.404.467.27.832.646 1.097 1.128.264.482.396 1.034.396 1.657 0 .622-.132 1.177-.396 1.664-.265.487-.63.863-1.097 1.128a3.1 3.1 0 0 1-1.555.396zm8.78.98c.664 0 1.237-.119 1.72-.357.482-.239.847-.57 1.096-.996v1.276h1.058v-5.071c0-1.048-.285-1.839-.856-2.373-.57-.534-1.39-.8-2.457-.8-.643 0-1.255.095-1.836.287a4.414 4.414 0 0 0-1.493.817l.498.824c.342-.3.751-.537 1.228-.708a4.39 4.39 0 0 1 1.494-.256c.757 0 1.332.184 1.726.552.395.368.592.905.592 1.61v.498h-2.598c-1.1 0-1.9.212-2.404.637-.503.426-.754.986-.754 1.68 0 .716.27 1.292.809 1.727.54.436 1.265.653 2.178.653zm.172-.87c-.654 0-1.162-.138-1.525-.413-.363-.275-.544-.65-.544-1.128 0-.974.7-1.462 2.1-1.462h2.567v1.338c-.218.54-.55.951-.996 1.237-.446.285-.98.427-1.602.427zm10.243.87c.695 0 1.322-.137 1.882-.412.56-.275 1.001-.676 1.323-1.205l-.825-.56c-.27.404-.612.705-1.027.902a3.114 3.114 0 0 1-1.353.295 3.205 3.205 0 0 1-1.594-.396 2.8 2.8 0 0 1-1.105-1.12c-.264-.482-.396-1.04-.396-1.672 0-.623.132-1.177.396-1.665a2.787 2.787 0 0 1 1.105-1.128 3.205 3.205 0 0 1 1.594-.396c.488 0 .939.1 1.353.303a2.58 2.58 0 0 1 1.027.91l.825-.56a3.139 3.139 0 0 0-1.315-1.206c-.555-.274-1.185-.412-1.89-.412-.809 0-1.532.177-2.17.53a3.843 3.843 0 0 0-1.501 1.477c-.363.632-.544 1.348-.544 2.147 0 .798.181 1.516.544 2.154a3.829 3.829 0 0 0 1.501 1.486c.638.352 1.361.528 2.17.528zm8.812 0c.654 0 1.253-.114 1.797-.342.544-.228.998-.56 1.361-.995l-.622-.716c-.311.353-.68.62-1.105.801a3.53 3.53 0 0 1-1.4.272c-.902 0-1.648-.261-2.24-.785-.59-.524-.917-1.21-.98-2.061h6.845l.015-.342c0-.81-.17-1.527-.513-2.155a3.75 3.75 0 0 0-1.415-1.47c-.602-.352-1.281-.529-2.038-.529-.757 0-1.44.177-2.046.53a3.773 3.773 0 0 0-1.43 1.477c-.348.632-.522 1.348-.522 2.147 0 .798.181 1.514.544 2.146a3.87 3.87 0 0 0 1.517 1.486c.648.358 1.392.536 2.232.536zm2.614-4.65h-5.803c.073-.81.376-1.465.91-1.968.535-.503 1.196-.755 1.984-.755.798 0 1.465.252 1.999.755s.837 1.158.91 1.967z" fill="#FFF" fill-rule="nonzero"/>
    </g>
</svg>
