<svg width="20" height="20" viewBox="0 0 20 20" xmlns="http://www.w3.org/2000/svg">
    <path d="M15.833 11.667v2.5h2.5v1.666h-2.5v2.5h-1.666v-2.5h-2.5v-1.666h2.5v-2.5h1.666zM6.651 7.973l.105.068L10 10.513v2.094l-2.386 1.817L10 16.287v1.89h-.054a.885.885 0 0 1-.172-.03l-.097-.034-.085-.042-.007-.004-.075-.05.018.012-.04-.027.02.015-.012-.009-7.501-5.715a.834.834 0 0 1-.093-1.244l.085-.076 3.751-2.926a.833.833 0 0 1 .913-.074zm-.395 1.782-2.392 1.867 2.34 1.782 2.42-1.844-2.368-1.805zm7.904-1.777.103.069L16.766 10h-2.708l-.314-.245-.322.245h-2.75l2.574-1.96a.833.833 0 0 1 .914-.062zM10.402 1.77l.103.067 3.75 2.857c.406.31.436.9.087 1.25l-.087.075-3.75 2.858a.833.833 0 0 1-.906.067l-.104-.067-3.75-2.858a.834.834 0 0 1-.087-1.25l.087-.075 3.75-2.857a.833.833 0 0 1 .907-.067zM10 3.547 7.625 5.356 10 7.166l2.375-1.81L10 3.548z" fill="#036FE2" fill-rule="evenodd"/>
</svg>
