<svg width="20" height="20" viewBox="0 0 20 20" xmlns="http://www.w3.org/2000/svg">
    <path d="M10 1.667c.232 0 .461.003.689.01l.393.018.37.022.671.059.236.026c3.06.357 5.422 1.39 5.935 2.666l.04.11V15c0 1.84-3.732 3.333-8.334 3.333-4.512 0-8.187-1.434-8.33-3.225L1.668 15V4.577C2.007 3.54 3.57 2.645 5.75 2.132l.396-.088.364-.072.307-.053.457-.07.051-.006c.368-.05.746-.09 1.134-.12l.442-.027.393-.018c.232-.007.468-.011.706-.011zm0 11.666c-2.726 0-5.146-.523-6.667-1.333v3c0-.03.004-.035.03-.012l.104.099c.25.236.68.491 1.26.723 1.342.537 3.234.857 5.273.857 2.04 0 3.93-.32 5.274-.857.514-.206.912-.43 1.17-.644l.193-.178c.02-.017.026-.018.029-.006V15l.001-3c-1.52.81-3.94 1.333-6.667 1.333zm0-5C7.274 8.333 4.854 7.81 3.333 7v3h.043l.09.087c.25.236.682.491 1.26.723 1.343.537 3.235.857 5.274.857 2.04 0 3.93-.32 5.274-.857.514-.206.912-.43 1.17-.644l.18-.166h.043V7c-1.52.81-3.94 1.333-6.667 1.333zm.312-4.997L10 3.333l-.616.01.143-.003a17.573 17.573 0 0 0-3.424.42c-.502.122-.965.266-1.377.43-.514.206-.912.43-1.17.644L3.377 5l.09.087c.25.236.682.491 1.26.723 1.343.537 3.235.857 5.274.857 2.04 0 3.93-.32 5.274-.857.514-.206.912-.43 1.17-.644l.18-.167-.09-.086c-.25-.236-.682-.491-1.26-.723a10.84 10.84 0 0 0-1.9-.544 18.07 18.07 0 0 0-2.65-.298l-.412-.012z" fill="" fill-rule="evenodd"/>
</svg>
