<svg width="24" height="24" viewBox="0 0 24 24" xmlns="http://www.w3.org/2000/svg">
    <g fill="none" fill-rule="evenodd">
        <path fill="#669DF6" d="M0 0h24v24H0z"/>
        <g fill="#FFF">
            <path d="M8.443 11.21v1.775c.28.482.676.886 1.154 1.175v-2.95H8.443zM10.575 9.577v5.082c.249.032.5.045.75.04a5.4 5.4 0 0 0 .675 0V9.578h-1.425zM13.107 11.905v2.22c.48-.305.874-.728 1.147-1.228v-.992h-1.147zM15.874 14.915l-.959.959a.283.283 0 0 0 0 .405l2.39 2.39c.11.108.288.108.398 0l.965-.966a.283.283 0 0 0 0-.398l-2.39-2.39a.283.283 0 0 0-.404 0"/>
            <path d="M11.325 5.25a6.075 6.075 0 1 0 0 12.15 6.075 6.075 0 0 0 0-12.15m0 10.59a4.509 4.509 0 1 1 .013-9.017 4.509 4.509 0 0 1-.013 9.017"/>
        </g>
    </g>
</svg>
