<svg width="20" height="20" viewBox="0 0 16 16" xmlns="http://www.w3.org/2000/svg">
    <path d="m7.162 2-1 3.333.552.001c.067.47.205.919.402 1.333H5.762l-.8 2.666h2.609l.422-1.407c.331.339.714.628 1.135.854l-.166.553h1.705v1.334H8.56L7.562 14H6.171l.999-3.333H4.561L3.562 14h-1.39l.999-3.333H1.333V9.333h2.238l.8-2.666H2.667V5.333H4.77L5.77 2h1.391zm4.171-.667a3.333 3.333 0 1 1 0 6.667 3.333 3.333 0 0 1 0-6.667zm0 .667a2.667 2.667 0 1 0 0 5.333 2.667 2.667 0 0 0 0-5.333zm0 1.333a1.333 1.333 0 1 1 0 2.667 1.333 1.333 0 0 1 0-2.667z" fill="#036FE2" fill-rule="evenodd"/>
</svg>
