<svg width="24" height="24" viewBox="0 0 24 24" fill="none" xmlns="http://www.w3.org/2000/svg">
<path fill-rule="evenodd" clip-rule="evenodd" d="M0 0H24V24H0V0Z" fill="#29B5E8"/>
<path d="M9.50834 12.379C9.567 12.1961 9.57047 11.9999 9.51834 11.815C9.4821 11.6878 9.42102 11.569 9.33864 11.4655C9.25625 11.362 9.15419 11.2759 9.03834 11.212L5.54434 9.244C5.30816 9.11039 5.02921 9.07409 4.76669 9.14279C4.50418 9.2115 4.27878 9.37981 4.13834 9.612C4.07068 9.72604 4.02669 9.85254 4.009 9.98395C3.99131 10.1154 4.00028 10.249 4.03537 10.3769C4.07047 10.5047 4.13097 10.6242 4.21326 10.7282C4.29555 10.8322 4.39795 10.9185 4.51434 10.982L6.46834 12.084L4.51434 13.182C4.39785 13.2458 4.29539 13.3324 4.21307 13.4367C4.13075 13.5409 4.07024 13.6606 4.03516 13.7888C4.00007 13.9169 3.99113 14.0507 4.00886 14.1824C4.02658 14.314 4.07062 14.4407 4.13834 14.555C4.42134 15.034 5.05134 15.198 5.54434 14.921L9.04034 12.951C9.27534 12.819 9.43634 12.611 9.51034 12.379H9.50834ZM10.4573 14.223C10.2573 14.206 10.0473 14.247 9.85934 14.353L6.36134 16.32C6.24512 16.3842 6.14294 16.4711 6.06085 16.5754C5.97875 16.6798 5.91839 16.7996 5.88335 16.9276C5.8483 17.0557 5.83927 17.1895 5.85678 17.3211C5.8743 17.4528 5.91801 17.5795 5.98534 17.694C6.27034 18.174 6.89934 18.339 7.39034 18.06L9.35034 16.958V19.16C9.35034 19.715 9.81034 20.165 10.3803 20.165C10.9483 20.165 11.4103 19.715 11.4103 19.16V15.224C11.4103 14.695 10.9903 14.261 10.4573 14.224V14.223ZM14.0393 9.943C14.2393 9.96 14.4483 9.918 14.6363 9.813L18.1333 7.843C18.2496 7.77906 18.3518 7.69245 18.434 7.58831C18.5162 7.48416 18.5766 7.36459 18.6118 7.23667C18.6469 7.10874 18.6561 6.97507 18.6386 6.84356C18.6212 6.71204 18.5776 6.58536 18.5103 6.471C18.3698 6.23925 18.1445 6.07134 17.8822 6.00283C17.6199 5.93433 17.3413 5.97061 17.1053 6.104L15.1463 7.208V5.004C15.1463 4.45 14.6863 4 14.1163 4C13.5463 4 13.0863 4.45 13.0863 5.004V8.941C13.0863 9.469 13.5063 9.904 14.0393 9.942V9.943ZM6.36134 7.843L9.85934 9.813C10.0473 9.918 10.2563 9.96 10.4573 9.943C10.9893 9.905 11.4103 9.47 11.4103 8.943V5.004C11.4103 4.45 10.9483 4 10.3803 4C9.81034 4 9.35034 4.45 9.35034 5.004V7.207L7.39034 6.104C7.15437 5.97061 6.87574 5.93433 6.61348 6.00283C6.35122 6.07134 6.12593 6.23925 5.98534 6.471C5.9179 6.58534 5.87409 6.71205 5.85651 6.84363C5.83893 6.97521 5.84794 7.10898 5.883 7.23701C5.91806 7.36504 5.97847 7.48474 6.06063 7.589C6.1428 7.69327 6.24505 7.77998 6.36134 7.844V7.843ZM12.9353 12.075C12.9305 12.0084 12.9034 11.9453 12.8583 11.896L12.4383 11.488C12.3874 11.4435 12.3229 11.4174 12.2553 11.414H12.2393C12.1724 11.4176 12.1086 11.4437 12.0583 11.488L11.6373 11.896C11.5923 11.9455 11.5658 12.0091 11.5623 12.076V12.091C11.5623 12.148 11.5953 12.227 11.6373 12.268L12.0573 12.678C12.0993 12.718 12.1803 12.752 12.2393 12.752H12.2553C12.3226 12.7485 12.3867 12.7224 12.4373 12.678L12.8583 12.268C12.9035 12.2196 12.9307 12.1571 12.9353 12.091V12.075V12.075ZM14.0973 12.468L12.6443 13.884C12.594 13.9298 12.5293 13.9567 12.4613 13.96H12.0343C11.9665 13.9561 11.902 13.9293 11.8513 13.884L10.3983 12.468C10.3536 12.4199 10.3271 12.3576 10.3233 12.292V11.874C10.3233 11.817 10.3563 11.736 10.3983 11.696L11.8513 10.28C11.9021 10.2352 11.9667 10.2091 12.0343 10.206H12.4613C12.5213 10.206 12.6023 10.238 12.6443 10.28L14.0973 11.696C14.1393 11.736 14.1733 11.816 14.1733 11.874V12.292C14.1693 12.3577 14.1424 12.42 14.0973 12.468V12.468ZM18.1333 16.32L14.6363 14.354C14.4552 14.251 14.247 14.2053 14.0393 14.223C13.7836 14.2384 13.5432 14.3501 13.3666 14.5357C13.1899 14.7212 13.0902 14.9668 13.0873 15.223V19.16C13.0873 19.715 13.5473 20.165 14.1163 20.165C14.6863 20.165 15.1463 19.715 15.1463 19.16V16.958L17.1053 18.06C17.3411 18.194 17.6198 18.2307 17.8822 18.1624C18.1446 18.094 18.3699 17.926 18.5103 17.694C18.5776 17.5795 18.6213 17.4527 18.6387 17.321C18.6562 17.1893 18.6471 17.0555 18.6119 16.9274C18.5768 16.7993 18.5163 16.6796 18.4341 16.5753C18.3519 16.4709 18.2496 16.3841 18.1333 16.32V16.32ZM19.9833 10.982L18.0283 12.084L19.9813 13.182C20.0979 13.2457 20.2005 13.3323 20.2829 13.4365C20.3653 13.5407 20.4259 13.6604 20.4611 13.7885C20.4963 13.9166 20.5053 14.0505 20.4877 14.1822C20.47 14.3139 20.426 14.4407 20.3583 14.555C20.0743 15.034 19.4443 15.198 18.9523 14.921L15.4543 12.951C15.2594 12.8421 15.1066 12.6711 15.0201 12.4652C14.9337 12.2593 14.9186 12.0304 14.9773 11.815C15.0473 11.569 15.2113 11.35 15.4543 11.212L18.9523 9.244C19.1886 9.11065 19.4675 9.07449 19.7299 9.14318C19.9923 9.21186 20.2177 9.38001 20.3583 9.612C20.4258 9.72613 20.4696 9.85268 20.4872 9.9841C20.5047 10.1155 20.4956 10.2491 20.4605 10.377C20.4253 10.5048 20.3647 10.6243 20.2824 10.7282C20.2001 10.8321 20.0977 10.9185 19.9813 10.982H19.9833Z" fill="white"/>
</svg>
