<svg width="20" height="20" viewBox="0 0 20 20" xmlns="http://www.w3.org/2000/svg">
    <path d="m14.962 2.083 3.75 6.496a.833.833 0 0 1-.305 1.138l-2.887 1.667a.833.833 0 0 1-1.138-.305l-.07-.12-1.897.894a2.503 2.503 0 0 1-.534 2.293l2.356 4.187h-1.912l-1.895-3.37a2.516 2.516 0 0 1-.86 0l-1.896 3.37h-1.91l2.354-4.188a2.511 2.511 0 0 1-.153-.193l-.523.245a.833.833 0 0 1-1.077-.337l-.034-.058-2.164 1.25a.833.833 0 0 1-1.139-.305l-1.25-2.165a.833.833 0 0 1 .305-1.138l2.165-1.251-.033-.057a.833.833 0 0 1 .247-1.101L10.7 4.704l-.069-.12a.833.833 0 0 1 .305-1.139l2.887-1.667a.833.833 0 0 1 1.138.305zM10 11.667a.833.833 0 1 0 0 1.666.833.833 0 0 0 0-1.666zm-4.92-.03-1.443.833.417.722 1.443-.834-.416-.721zm6.457-5.485L6.042 9.966l1.383 2.396.081-.038a2.5 2.5 0 0 1 3.946-1.86l2.024-.954-1.939-3.358zm2.398-2.514-1.443.833 2.916 5.052 1.444-.833-2.917-5.052z" fill="#2C3032" fill-rule="evenodd"/>
</svg>
